<svg xmlns="http://www.w3.org/2000/svg" width="48" height="48" viewBox="0 0 48 48">
  <path fill="#EA4335" d="M24 12.2c3.4 0 5.7 1.5 7 2.8l5.1-5.1C34.7 7 29.9 5 24 5 14.8 5 7.2 10.7 4.2 19.1l6 4.7C11.7 15.8 17.3 12.2 24 12.2z"/>
  <path fill="#34A853" d="M46.5 24.5c0-1.6-.1-3.1-.4-4.6H24v9.1h12.6c-.5 2.9-2.1 5.5-4.6 7.1l7 5.4C43.8 37.6 46.5 31.4 46.5 24.5z"/>
  <path fill="#4A90E2" d="M10.2 29.6A14.6 14.6 0 0110 24c0-1.6.3-3.2.8-4.7L4.8 14.5A23.9 23.9 0 002 24c0 3.9.9 7.6 2.5 10.8l5.7-5.2z"/>
  <path fill="#FBBC05" d="M24 44c6.1 0 11.3-2 15.1-5.5l-7-5.4c-2 1.3-4.5 2-8.1 2-6.8 0-12.4-3.6-15.1-8.9l-6 4.6C7.2 37.3 14.8 44 24 44z"/>
</svg>
